<svg width="120" height="44" viewBox="0 0 120 44" fill="none" xmlns="http://www.w3.org/2000/svg">
<g filter="url(#filter0_d)">
<rect x="4" y="2" width="112" height="36" rx="18" fill="white"/>
<rect x="4.15" y="2.15" width="111.7" height="35.7" rx="17.85" stroke="black" stroke-opacity="0.25" stroke-width="0.3"/>
</g>
<path d="M45.232 16.272C45.232 17.568 45.232 19.08 44.824 21.144L45.808 21.252C46.216 19.08 46.216 17.604 46.216 16.272V15.204H38.668V16.008H45.232V16.272ZM42.412 22.572V18.72H41.428V22.572H37.648V23.376H47.38V22.572H42.412ZM49.1551 14.928V15.72H52.3471C52.1671 17.508 50.9311 18.96 48.7351 19.86L49.2151 20.58C51.9391 19.428 53.3551 17.496 53.3551 14.928H49.1551ZM50.5231 21.78H56.7751V24.888H57.7591V20.976H50.5231V21.78ZM56.8111 14.136V16.836H55.3951V14.328H54.4591V20.412H55.3951V17.64H56.8111V20.46H57.7591V14.136H56.8111ZM60.8781 17.532C60.8781 16.476 61.6701 15.732 62.7261 15.732C63.7821 15.732 64.5741 16.476 64.5741 17.532C64.5741 18.588 63.7821 19.332 62.7261 19.332C61.6701 19.332 60.8781 18.588 60.8781 17.532ZM65.5341 17.532C65.5341 15.972 64.3341 14.88 62.7261 14.88C61.1181 14.88 59.9181 15.972 59.9181 17.532C59.9181 19.092 61.1181 20.184 62.7261 20.184C64.3341 20.184 65.5341 19.092 65.5341 17.532ZM62.3541 21.24H61.3701V24.648H68.5461V23.844H62.3541V21.24ZM68.0661 17.4V14.124H67.0821V22.044H68.0661V18.216H69.6501V17.4H68.0661ZM72.2652 15.432H71.2812V22.092H71.9652C73.1292 22.092 74.3652 22.032 75.8172 21.756L75.7212 20.904C74.4372 21.156 73.2972 21.228 72.2652 21.24V15.432ZM78.9372 14.124V18.504H77.4132V14.364H76.4892V24.336H77.4132V19.32H78.9372V24.876H79.8852V14.124H78.9372ZM90.8763 14.124H89.9283V22.2H90.8763V14.124ZM87.8283 21.888H88.7523V14.34H87.8283V16.836H86.1483V17.64H87.8283V21.888ZM87.0843 19.62C85.7403 19.008 84.9723 17.736 84.9723 16.464V14.88H84.0243V16.464C84.0243 17.748 83.2083 19.224 81.8163 19.896L82.3683 20.652C83.3763 20.148 84.1203 19.212 84.5043 18.156C84.8763 19.116 85.5723 19.92 86.5443 20.376L87.0843 19.62ZM84.8403 23.844V21.216H83.8563V24.648H91.1883V23.844H84.8403ZM94.3073 18.924H97.8353V18.132H94.3073V15.912H98.3033V15.096H93.3233V22.308H94.1513C96.2033 22.308 97.5113 22.248 99.0713 21.972L98.9633 21.168C97.4993 21.432 96.2513 21.504 94.3073 21.504V18.924ZM100.715 14.112V18.18H98.4953V18.996H100.715V24.9H101.699V14.112H100.715Z" fill="black"/>
<path d="M29.292 17.3333H30C30.3536 17.3333 30.6928 17.4738 30.9428 17.7239C31.1929 17.9739 31.3334 18.313 31.3334 18.6667V21.3333C31.3334 21.687 31.1929 22.0261 30.9428 22.2761C30.6928 22.5262 30.3536 22.6667 30 22.6667H29.292C29.1295 23.9555 28.5022 25.1408 27.5279 26C26.5535 26.8592 25.2991 27.3333 24 27.3333V26C25.0609 26 26.0783 25.5786 26.8284 24.8284C27.5786 24.0783 28 23.0609 28 22V18C28 16.9391 27.5786 15.9217 26.8284 15.1716C26.0783 14.4214 25.0609 14 24 14C22.9392 14 21.9217 14.4214 21.1716 15.1716C20.4214 15.9217 20 16.9391 20 18V22.6667H18C17.6464 22.6667 17.3073 22.5262 17.0572 22.2761C16.8072 22.0261 16.6667 21.687 16.6667 21.3333V18.6667C16.6667 18.313 16.8072 17.9739 17.0572 17.7239C17.3073 17.4738 17.6464 17.3333 18 17.3333H18.708C18.8707 16.0446 19.4981 14.8595 20.4724 14.0004C21.4467 13.1414 22.7011 12.6674 24 12.6674C25.299 12.6674 26.5533 13.1414 27.5276 14.0004C28.502 14.8595 29.1293 16.0446 29.292 17.3333ZM18 18.6667V21.3333H18.6667V18.6667H18ZM29.3334 18.6667V21.3333H30V18.6667H29.3334ZM21.1734 22.5233L21.88 21.3927C22.5154 21.7907 23.2503 22.0012 24 22C24.7498 22.0012 25.4846 21.7907 26.12 21.3927L26.8267 22.5233C25.9795 23.0541 24.9997 23.3349 24 23.3333C23.0003 23.3349 22.0205 23.0541 21.1734 22.5233Z" fill="black"/>
<defs>
<filter id="filter0_d" x="0" y="0" width="120" height="44" filterUnits="userSpaceOnUse" color-interpolation-filters="sRGB">
<feFlood flood-opacity="0" result="BackgroundImageFix"/>
<feColorMatrix in="SourceAlpha" type="matrix" values="0 0 0 0 0 0 0 0 0 0 0 0 0 0 0 0 0 0 127 0" result="hardAlpha"/>
<feOffset dy="2"/>
<feGaussianBlur stdDeviation="2"/>
<feComposite in2="hardAlpha" operator="out"/>
<feColorMatrix type="matrix" values="0 0 0 0 0 0 0 0 0 0 0 0 0 0 0 0 0 0 0.25 0"/>
<feBlend mode="normal" in2="BackgroundImageFix" result="effect1_dropShadow"/>
<feBlend mode="normal" in="SourceGraphic" in2="effect1_dropShadow" result="shape"/>
</filter>
</defs>
</svg>
