<svg width="123" height="44" viewBox="0 0 123 44" fill="none" xmlns="http://www.w3.org/2000/svg">
<g filter="url(#filter0_d)">
<rect x="4" y="2" width="115" height="36" rx="18" fill="white"/>
<rect x="4.15" y="2.15" width="114.7" height="35.7" rx="17.85" stroke="black" stroke-opacity="0.25" stroke-width="0.3"/>
</g>
<path d="M40.26 16.044H42.648V15.228H36.828V16.044H39.288V17.412C39.288 19.236 37.992 21.276 36.456 22.044L37.032 22.824C38.244 22.2 39.288 20.832 39.78 19.26C40.272 20.7 41.28 21.96 42.48 22.56L43.044 21.768C41.484 21.036 40.26 19.128 40.26 17.412V16.044ZM46.692 18.468H44.916V14.136H43.932V24.888H44.916V19.296H46.692V18.468ZM53.3871 17.1V17.904H55.5471V22.02H56.5431V14.136H55.5471V17.1H53.3871ZM54.0231 19.632C52.4631 19.08 51.4071 17.736 51.4071 16.332V15.804H53.7711V15H48.0231V15.804H50.4231V16.344C50.4231 17.868 49.3071 19.296 47.7111 19.872L48.2271 20.64C49.4871 20.184 50.4711 19.188 50.9391 17.964C51.4071 19.068 52.3311 19.968 53.5311 20.4L54.0231 19.632ZM50.6511 23.844V21.324H49.6551V24.648H56.8431V23.844H50.6511ZM59.1821 15.288V16.08H63.1061C62.9261 18.6 61.5941 20.652 58.7021 22.068L59.2421 22.836C62.8181 21.072 64.0901 18.348 64.0901 15.288H59.1821ZM66.5861 14.136V18.444H64.0661V19.248H66.5861V24.888H67.5701V14.136H66.5861ZM71.8772 17.616H77.3732V19.596H71.8772V17.616ZM75.1172 22.704V20.388H78.3332V14.892H77.3732V16.812H71.8772V14.892H70.9052V20.388H74.1212V22.704H69.7532V23.508H79.5092V22.704H75.1172ZM86.4443 18.72C86.7203 17.304 86.7203 16.236 86.7203 15.528V14.964H81.3683V15.768H85.7603C85.7603 16.452 85.7243 17.376 85.4723 18.612L86.4443 18.72ZM87.4643 19.368C86.3723 19.512 85.1483 19.608 83.9723 19.656V17.364H83.0003V19.692C82.1843 19.704 81.4043 19.716 80.7203 19.716L80.8163 20.52C82.7243 20.52 85.3043 20.46 87.5363 20.088L87.4643 19.368ZM83.3483 21.492H82.3643V24.648H89.5163V23.844H83.3483V21.492ZM89.1683 17.628V14.124H88.1843V22.236H89.1683V18.444H90.7043V17.628H89.1683ZM101.119 19.38C99.2353 19.044 97.1833 17.46 97.1833 15.672V14.844H96.1513V15.672C96.1513 17.46 94.1113 19.044 92.2273 19.38L92.6353 20.196C94.2913 19.848 95.9713 18.732 96.6673 17.196C97.3633 18.732 99.0553 19.848 100.699 20.196L101.119 19.38ZM97.1593 22.68V20.064H96.1753V22.68H91.8313V23.484H101.599V22.68H97.1593Z" fill="black"/>
<path d="M25.7998 13.6C25.6937 13.6 25.592 13.6421 25.517 13.7172C25.442 13.7922 25.3998 13.8939 25.3998 14C25.3998 14.1061 25.442 14.2078 25.517 14.2828C25.592 14.3579 25.6937 14.4 25.7998 14.4H27.0718L27.5518 16.8H22.9998V15.6C22.9998 15.4939 22.9577 15.3922 22.8827 15.3172C22.8076 15.2421 22.7059 15.2 22.5998 15.2H20.9998C20.8937 15.2 20.792 15.2421 20.717 15.3172C20.642 15.3922 20.5998 15.4939 20.5998 15.6C20.5998 15.7061 20.642 15.8078 20.717 15.8828C20.792 15.9579 20.8937 16 20.9998 16H22.1998V17.1672L21.8606 19.2H21.7998C21.2519 19.2 20.716 19.3608 20.2586 19.6625C19.8012 19.9641 19.4423 20.3933 19.2264 20.8969C19.0106 21.4005 18.9472 21.9564 19.0442 22.4956C19.1412 23.0349 19.3943 23.5339 19.7721 23.9307C20.1499 24.3275 20.6358 24.6048 21.1697 24.7281C21.7036 24.8515 22.2619 24.8155 22.7755 24.6246C23.2891 24.4337 23.7354 24.0963 24.0591 23.6543C24.3828 23.2122 24.5697 22.6849 24.5966 22.1376L27.7726 17.9032L28.0638 19.36C27.4417 19.581 26.9177 20.0147 26.5842 20.5844C26.2507 21.1542 26.1292 21.8235 26.2412 22.4741C26.3531 23.1248 26.6913 23.7149 27.196 24.1405C27.7008 24.566 28.3396 24.7996 28.9998 24.8C29.3737 24.7997 29.7438 24.7245 30.0881 24.5788C30.4325 24.4332 30.7442 24.22 31.0048 23.952C31.2655 23.6839 31.4698 23.3664 31.6058 23.018C31.7417 22.6697 31.8065 22.2977 31.7964 21.924C31.7862 21.5502 31.7013 21.1823 31.5467 20.8419C31.392 20.5014 31.1708 20.1955 30.8959 19.9419C30.6211 19.6884 30.2983 19.4925 29.9465 19.3658C29.5948 19.239 29.2212 19.184 28.8478 19.204L27.7918 13.9216C27.7737 13.831 27.7247 13.7494 27.6533 13.6908C27.5818 13.6321 27.4923 13.6001 27.3998 13.6H25.7998ZM19.7998 22C19.7999 21.4821 20.0009 20.9844 20.3605 20.6117C20.7201 20.2389 21.2102 20.0202 21.7278 20.0016L21.4054 21.9344C21.3959 21.9917 21.399 22.0503 21.4144 22.1063C21.4298 22.1623 21.4573 22.2142 21.4948 22.2585C21.5323 22.3028 21.579 22.3384 21.6317 22.3629C21.6844 22.3873 21.7418 22.4 21.7998 22.4H23.7598C23.6611 22.8861 23.3853 23.3181 22.986 23.6123C22.5867 23.9064 22.0923 24.0417 21.5988 23.9919C21.1054 23.942 20.648 23.7106 20.3156 23.3425C19.9831 22.9745 19.7993 22.496 19.7998 22ZM22.2718 21.6L22.5166 20.132C22.8304 20.2527 23.1087 20.4505 23.326 20.707C23.5432 20.9635 23.6924 21.2706 23.7598 21.6H22.2718ZM22.6502 19.3312L22.9382 17.6H26.9998L24.427 21.0304C24.2791 20.631 24.0423 20.2704 23.7345 19.976C23.4266 19.6816 23.0559 19.4611 22.6502 19.3312ZM28.223 20.156L28.607 22.0784C28.6278 22.1825 28.6891 22.274 28.7774 22.3329C28.8657 22.3918 28.9737 22.4132 29.0778 22.3924C29.1819 22.3716 29.2734 22.3103 29.3323 22.222C29.3912 22.1337 29.4126 22.0257 29.3918 21.9216L29.0078 20C29.5035 20.0024 29.9806 20.1887 30.3467 20.5229C30.7127 20.8571 30.9417 21.3153 30.9891 21.8086C31.0365 22.302 30.899 22.7954 30.6033 23.1932C30.3076 23.591 29.8747 23.8648 29.3886 23.9615C28.9024 24.0583 28.3977 23.971 27.9722 23.7167C27.5468 23.4625 27.2309 23.0593 27.0858 22.5853C26.9408 22.1114 26.9769 21.6004 27.1871 21.1516C27.3974 20.7027 27.7668 20.3479 28.2238 20.156H28.223Z" fill="black"/>
<defs>
<filter id="filter0_d" x="0" y="0" width="123" height="44" filterUnits="userSpaceOnUse" color-interpolation-filters="sRGB">
<feFlood flood-opacity="0" result="BackgroundImageFix"/>
<feColorMatrix in="SourceAlpha" type="matrix" values="0 0 0 0 0 0 0 0 0 0 0 0 0 0 0 0 0 0 127 0" result="hardAlpha"/>
<feOffset dy="2"/>
<feGaussianBlur stdDeviation="2"/>
<feComposite in2="hardAlpha" operator="out"/>
<feColorMatrix type="matrix" values="0 0 0 0 0 0 0 0 0 0 0 0 0 0 0 0 0 0 0.25 0"/>
<feBlend mode="normal" in2="BackgroundImageFix" result="effect1_dropShadow"/>
<feBlend mode="normal" in="SourceGraphic" in2="effect1_dropShadow" result="shape"/>
</filter>
</defs>
</svg>
