<svg width="89" height="44" viewBox="0 0 89 44" fill="none" xmlns="http://www.w3.org/2000/svg">
<g filter="url(#filter0_d)">
<rect x="4" y="2" width="81" height="36" rx="18" fill="white"/>
<rect x="4.15" y="2.15" width="80.7" height="35.7" rx="17.85" stroke="black" stroke-opacity="0.25" stroke-width="0.3"/>
</g>
<path d="M47.508 22.128H48.504V14.136H47.508V16.176H45.708V16.968H47.508V18.228H45.708V19.032H47.508V22.128ZM41.976 15.792H43.596V19.608C43.056 19.632 42.504 19.656 41.976 19.668V15.792ZM45.96 19.416C45.516 19.464 45.036 19.512 44.556 19.548V15.792H45.624V15H39.96V15.792H41.028V19.68C40.548 19.692 40.08 19.692 39.672 19.692L39.78 20.508C41.52 20.508 43.956 20.472 46.02 20.148L45.96 19.416ZM42.588 23.844V21.48H41.604V24.648H48.78V23.844H42.588ZM54.1671 14.916C52.4991 14.916 51.2871 15.936 51.2871 17.448C51.2871 18.948 52.4991 19.98 54.1671 19.98C55.8471 19.98 57.0471 18.948 57.0471 17.448C57.0471 15.936 55.8471 14.916 54.1671 14.916ZM54.1671 15.756C55.2831 15.756 56.0871 16.44 56.0871 17.448C56.0871 18.444 55.2831 19.14 54.1671 19.14C53.0631 19.14 52.2471 18.444 52.2471 17.448C52.2471 16.44 53.0631 15.756 54.1671 15.756ZM58.4631 14.124V24.912H59.4471V14.124H58.4631ZM50.8671 22.548C52.8111 22.548 55.4151 22.524 57.8391 22.08L57.7551 21.348C55.4031 21.708 52.7031 21.72 50.7471 21.72L50.8671 22.548ZM68.0621 19.308C66.5021 18.756 65.4461 17.412 65.4461 16.008V15.612H67.8101V14.808H62.0621V15.612H64.4621V16.02C64.4621 17.544 63.3461 18.972 61.7501 19.548L62.2661 20.316C63.5261 19.86 64.5101 18.876 64.9781 17.64C65.4461 18.744 66.3701 19.644 67.5701 20.076L68.0621 19.308ZM64.5461 21.732H69.6221V23.952H64.5461V21.732ZM63.5861 24.744H70.5821V20.952H63.5861V24.744ZM69.5861 14.124V16.824H67.4621V17.64H69.5861V20.424H70.5821V14.124H69.5861Z" fill="black"/>
<path d="M18.25 13V15.1327L16.5625 17.466V17.6667C16.5625 18.6262 17.3247 19.4167 18.25 19.4167V27H27.25V21.75H28.375V27H31.75V19.4167C32.6753 19.4167 33.4375 18.6262 33.4375 17.6667V17.466L31.75 15.1327V13H18.25ZM19.375 14.1667H30.625V14.75H19.375V14.1667ZM19.0938 15.9167H30.9062L32.2596 17.7944C32.1978 18.047 32.0138 18.25 31.75 18.25C31.4378 18.25 31.1875 17.9904 31.1875 17.6667H30.0625C30.0625 17.9904 29.8122 18.25 29.5 18.25C29.1878 18.25 28.9375 17.9904 28.9375 17.6667H27.8125C27.8125 17.9904 27.5622 18.25 27.25 18.25C26.9378 18.25 26.6875 17.9904 26.6875 17.6667H25.5625C25.5625 17.9904 25.3122 18.25 25 18.25C24.6878 18.25 24.4375 17.9904 24.4375 17.6667H23.3125C23.3125 17.9904 23.0622 18.25 22.75 18.25C22.4378 18.25 22.1875 17.9904 22.1875 17.6667H21.0625C21.0625 17.9904 20.8122 18.25 20.5 18.25C20.1878 18.25 19.9375 17.9904 19.9375 17.6667H18.8125C18.8125 17.9904 18.5622 18.25 18.25 18.25C17.9862 18.25 17.8017 18.047 17.7404 17.7944L19.0938 15.9167ZM19.375 18.9611C19.6737 19.2411 20.0691 19.4167 20.5 19.4167C20.9309 19.4167 21.3263 19.2417 21.625 18.9611C21.9237 19.2411 22.3191 19.4167 22.75 19.4167C23.1809 19.4167 23.5763 19.2417 23.875 18.9611C24.1737 19.2411 24.5691 19.4167 25 19.4167C25.4309 19.4167 25.8263 19.2417 26.125 18.9611C26.4237 19.2411 26.8191 19.4167 27.25 19.4167C27.6809 19.4167 28.0763 19.2417 28.375 18.9611C28.6737 19.2411 29.0691 19.4167 29.5 19.4167C29.9309 19.4167 30.3263 19.2417 30.625 18.9611V25.8333H29.5V20.5833H26.125V25.8333H19.375V18.9611ZM20.5 20.5833V24.6667H25V20.5833H20.5ZM21.625 21.75H23.875V23.5H21.625V21.75Z" fill="black"/>
<defs>
<filter id="filter0_d" x="0" y="0" width="89" height="44" filterUnits="userSpaceOnUse" color-interpolation-filters="sRGB">
<feFlood flood-opacity="0" result="BackgroundImageFix"/>
<feColorMatrix in="SourceAlpha" type="matrix" values="0 0 0 0 0 0 0 0 0 0 0 0 0 0 0 0 0 0 127 0" result="hardAlpha"/>
<feOffset dy="2"/>
<feGaussianBlur stdDeviation="2"/>
<feComposite in2="hardAlpha" operator="out"/>
<feColorMatrix type="matrix" values="0 0 0 0 0 0 0 0 0 0 0 0 0 0 0 0 0 0 0.25 0"/>
<feBlend mode="normal" in2="BackgroundImageFix" result="effect1_dropShadow"/>
<feBlend mode="normal" in="SourceGraphic" in2="effect1_dropShadow" result="shape"/>
</filter>
</defs>
</svg>
