<svg width="95" height="44" viewBox="0 0 95 44" fill="none" xmlns="http://www.w3.org/2000/svg">
<g filter="url(#filter0_d)">
<rect x="4" y="2" width="87" height="36" rx="18" fill="white"/>
<rect x="4.15" y="2.15" width="86.7" height="35.7" rx="17.85" stroke="black" stroke-opacity="0.25" stroke-width="0.3"/>
</g>
<path d="M49.128 15.432H46.416V14.136H45.432V15.432H42.696V16.212H49.128V15.432ZM44.316 18.84C44.316 18.096 44.964 17.604 45.924 17.604C46.884 17.604 47.532 18.096 47.532 18.84C47.532 19.584 46.884 20.064 45.924 20.064C44.964 20.064 44.316 19.584 44.316 18.84ZM46.416 20.808C47.652 20.652 48.468 19.908 48.468 18.84C48.468 17.628 47.424 16.848 45.924 16.848C44.424 16.848 43.38 17.628 43.38 18.84C43.38 19.908 44.196 20.652 45.432 20.808V21.984C44.388 22.02 43.38 22.02 42.516 22.02L42.648 22.848C44.532 22.848 47.064 22.824 49.368 22.416L49.308 21.684C48.384 21.828 47.388 21.9 46.416 21.948V20.808ZM52.608 18.696H50.928V14.124H49.944V24.888H50.928V19.524H52.608V18.696ZM59.9151 19.332C58.3311 18.804 57.3111 17.544 57.3111 16.14V15.72H59.6871V14.928H53.9151V15.72H56.3271V16.14C56.3271 17.688 55.2471 19.08 53.6271 19.644L54.1311 20.424C55.4151 19.968 56.3871 19.008 56.8431 17.784C57.2991 18.852 58.2231 19.704 59.4471 20.1L59.9151 19.332ZM58.6071 24.096C56.9991 24.096 56.0391 23.652 56.0391 22.884C56.0391 22.128 56.9991 21.684 58.6071 21.684C60.1911 21.684 61.1631 22.128 61.1631 22.884C61.1631 23.652 60.1911 24.096 58.6071 24.096ZM58.6071 20.904C56.3991 20.904 55.0551 21.636 55.0551 22.884C55.0551 24.144 56.3991 24.876 58.6071 24.876C60.7911 24.876 62.1471 24.144 62.1471 22.884C62.1471 21.636 60.7911 20.904 58.6071 20.904ZM62.0271 16.848V14.136H61.0431V20.628H62.0271V17.676H63.6231V16.848H62.0271ZM73.5341 14.136H72.5501V19.704H73.5341V14.136ZM71.2301 18.624C69.6341 18.096 68.5061 16.752 68.5061 15.264V14.448H67.5221V15.264C67.5221 16.824 66.4061 18.264 64.7861 18.828L65.2901 19.596C66.5621 19.14 67.5581 18.156 68.0261 16.92C68.5181 18.06 69.5021 18.96 70.7381 19.392L71.2301 18.624ZM67.5701 23.988V22.836H73.5461V20.244H66.5741V21.012H72.5741V22.092H66.5981V24.768H73.9061V23.988H67.5701Z" fill="black"/>
<g clip-path="url(#clip0)">
<path d="M29.1 24.8V24.3H28.6H26.9694L28.2569 21.4031L28.3 21.3061V21.2V19.2C28.3 18.5961 28.7961 18.1 29.4 18.1H31C31.2917 18.1 31.5715 18.2159 31.7778 18.4222C31.9841 18.6285 32.1 18.9083 32.1 19.2V21.2V21.3061L32.1431 21.4031L33.4306 24.3H31.8H31.3V24.8V27.5H29.1V24.8ZM24.6 21.9H24.1V22.4V27.5H21.9V22.4V21.9H21.4H20.3V19.2C20.3 18.9083 20.4159 18.6285 20.6222 18.4222L20.2811 18.0811L20.6222 18.4222C20.8285 18.2159 21.1082 18.1 21.4 18.1H24.6C24.8917 18.1 25.1715 18.2159 25.3778 18.4222C25.5841 18.6285 25.7 18.9083 25.7 19.2V21.9H24.6ZM23 16.3C22.4961 16.3 22.0128 16.0998 21.6565 15.7435C21.3002 15.3872 21.1 14.9039 21.1 14.4C21.1 13.8961 21.3002 13.4128 21.6565 13.0565C22.0128 12.7002 22.4961 12.5 23 12.5C23.5039 12.5 23.9872 12.7002 24.3435 13.0565C24.6998 13.4128 24.9 13.8961 24.9 14.4C24.9 14.9039 24.6998 15.3872 24.3435 15.7435C23.9872 16.0998 23.5039 16.3 23 16.3ZM30.2 16.3C29.6961 16.3 29.2128 16.0998 28.8565 15.7435C28.5002 15.3872 28.3 14.9039 28.3 14.4C28.3 13.8961 28.5002 13.4128 28.8565 13.0565L28.5108 12.7108L28.8565 13.0565C29.2128 12.7002 29.6961 12.5 30.2 12.5C30.7039 12.5 31.1872 12.7002 31.5435 13.0565L31.8892 12.7108L31.5435 13.0565C31.8998 13.4128 32.1 13.8961 32.1 14.4C32.1 14.9039 31.8998 15.3872 31.5435 15.7435C31.1872 16.0998 30.7039 16.3 30.2 16.3Z" fill="white" stroke="black"/>
</g>
<defs>
<filter id="filter0_d" x="0" y="0" width="95" height="44" filterUnits="userSpaceOnUse" color-interpolation-filters="sRGB">
<feFlood flood-opacity="0" result="BackgroundImageFix"/>
<feColorMatrix in="SourceAlpha" type="matrix" values="0 0 0 0 0 0 0 0 0 0 0 0 0 0 0 0 0 0 127 0" result="hardAlpha"/>
<feOffset dy="2"/>
<feGaussianBlur stdDeviation="2"/>
<feComposite in2="hardAlpha" operator="out"/>
<feColorMatrix type="matrix" values="0 0 0 0 0 0 0 0 0 0 0 0 0 0 0 0 0 0 0.25 0"/>
<feBlend mode="normal" in2="BackgroundImageFix" result="effect1_dropShadow"/>
<feBlend mode="normal" in="SourceGraphic" in2="effect1_dropShadow" result="shape"/>
</filter>
<clipPath id="clip0">
<rect width="16" height="16" fill="white" transform="translate(19 12)"/>
</clipPath>
</defs>
</svg>
